# xmcd CD database file
#
# Track frame offsets:
#	150
#	11787
#	24840
#	39371
#	51991
#	67024
#	78933
#	90566
#	104544
#	117411
#	132360
#	146452
#	159781
#	174022
#	187066
#	199372
#	213802
#	227937
#	242591
#	254937
#	267084
#	280164
#	292140
#	306412
#	321262
#
# Disc length: 4445 seconds
#
# Revision: 4
# Processed by: cddbd v1.5.2PL0 Copyright (c) Steve Scherf et al.
# Submitted via: CDex 1.89
#
DISCID=71115b19
DTITLE=Ella Fitzgerald - Ella Fitzgerald: 100 Songs For A Centennial [Disc 1]
DYEAR=2017
DGENRE=Jazz
TTITLE0=Sing Me A Swing Song (And Let Me Dance)
TTITLE1=(If You Can't Sing It) You'll Have To Swing It
TTITLE2=Dedicated To You
TTITLE3=Big Boy Blue
TTITLE4=I Got A Guy
TTITLE5=A-Tisket, A-Tasket
TTITLE6=I Found My Yellow Basket
TTITLE7=McPherson Is Rehearsin' (To Swing)
TTITLE8=F.D.R. Jones
TTITLE9=Undecided
TTITLE10=I Want The Waiter (With The Water)
TTITLE11=Imagination
TTITLE12=Five O'Clock Whistle
TTITLE13=Cow-Cow Boogie
TTITLE14=When My Sugar Walks Down The Street
TTITLE15=I'm Making Believe
TTITLE16=Into Each Life Some Rain Must Fall
TTITLE17=And Her Tears Flowed Like Wine
TTITLE18=I'm Beginning To See The Light
TTITLE19=It's Only A Paper Moon
TTITLE20=You Won't Be Satisfied
TTITLE21=Stone Cold Dead In The Market
TTITLE22=(I Love You) For Sentimental Reasons
TTITLE23=My Happiness
TTITLE24=Baby, It's Cold Outside
EXTD=YEAR: 2017
EXTT0=
EXTT1=
EXTT2=
EXTT3=
EXTT4=
EXTT5=
EXTT6=
EXTT7=
EXTT8=
EXTT9=
EXTT10=
EXTT11=
EXTT12=
EXTT13=
EXTT14=
EXTT15=
EXTT16=
EXTT17=
EXTT18=
EXTT19=
EXTT20=
EXTT21=
EXTT22=
EXTT23=
EXTT24=
PLAYORDER=
